<svg width="110" height="96" viewBox="0 0 110 96" fill="#FFFFF" xmlns="http://www.w3.org/2000/svg">
<path d="M52.0535 0L48.528 7.05019C46.7032 7.14773 44.8874 7.34901 43.0924 7.65276L37.6995 1.55327L31.887 3.28428L31.858 11.0446C29.3958 12.1531 27.0361 13.4934 24.8072 15.0576L16.5924 11.818L12.3866 15.7362L16.5921 22.7229C15.2504 24.3983 14.0713 26.1692 13.0672 28.017L4.04792 28.2324L2.21664 33.3613L9.49866 38.0597C9.15006 39.9627 8.97981 41.8857 8.97008 43.8102L0.884766 47.3986L1.73161 52.7243L10.6061 54.2459C11.1366 55.8729 11.7945 57.4659 12.575 59.0137L6.7265 65.3731L9.99088 69.9249L19.0824 68.0611C19.6577 68.654 20.2539 69.2311 20.8701 69.7917C22.1572 70.9577 23.5282 72.0505 24.9746 73.0631L23.2084 81.0391L28.5216 83.7273L35.4631 78.4333C37.4494 79.1326 39.4944 79.6964 41.5798 80.1196L43.8456 87.9116L49.9618 88.3492L53.639 81.0008C56.18 80.8669 58.7126 80.5341 61.2031 79.9989L67.0449 85.9272L72.7414 83.93L72.5746 80.9247L59.2776 72.0932C55.4066 72.9503 51.3924 73.1798 47.4498 72.7903C40.0946 72.0639 33.0261 69.1546 27.479 64.13C14.8 52.644 15.1625 34.3731 28.2754 23.2681C34.6267 17.889 42.7963 15.1603 50.9752 15.083C59.6822 15.0006 68.3971 17.9225 74.9347 23.8449C85.5747 33.4843 87.0249 47.9849 79.4658 58.963L86.8711 63.8829C87.7918 62.6182 88.6233 61.3055 89.3611 59.952L98.3148 59.7364L100.146 54.6075L92.9153 49.9411C93.264 48.0224 93.4406 46.0828 93.4434 44.1399L101.478 40.5641L100.632 35.2384L91.7648 33.7168C91.0187 31.4671 90.0298 29.2847 88.8115 27.1991L94.095 20.7892L90.5626 16.3954L81.8625 18.6081C81.7532 18.5066 81.6471 18.4037 81.5364 18.3037C80.167 17.0627 78.7014 15.9059 77.15 14.8417L78.815 7.30968L73.5011 4.62168L66.8996 9.65603C64.7626 8.90272 62.5677 8.31639 60.3415 7.8808L58.1773 0.437416L52.0535 0ZM38.5827 31.1426C36.1867 31.1665 33.8118 31.6819 31.6338 32.6196L42.1082 39.5813C45.2759 41.6864 46.1744 45.6871 43.7435 48.4954C41.3118 51.3053 36.6426 51.7277 33.4289 49.5926L22.962 42.6373C21.8902 47.6674 23.9198 52.9972 28.8904 56.3003C33.3481 59.2618 39.0692 59.8163 43.9973 58.2659L45.1045 57.9169L46.038 58.5383L77.3522 79.3468L78.2857 79.9681L78.206 80.9953C77.8268 85.5703 79.9641 90.2488 84.4239 93.2123C89.3947 96.5152 95.8074 96.7891 101.05 94.531L90.5839 87.5762C87.3703 85.4407 86.5809 81.387 89.0135 78.5795C91.4456 75.7716 96.0868 75.4541 99.2555 77.5586L109.722 84.5141C110.792 79.4858 108.77 74.1535 103.801 70.8511C99.3278 67.8773 93.6519 67.2881 88.7526 68.8156L87.6524 69.1581L86.7189 68.5366L55.4047 47.7285L54.4712 47.1071L54.5509 46.0866C54.9099 41.5446 52.7326 36.9175 48.2605 33.945C45.3549 32.0144 41.9548 31.1089 38.5827 31.1426ZM48.6733 49.4528L86.6318 74.6801L84.0186 77.7043L46.0528 52.4707L48.6733 49.4528Z" fill="#FF9A1F"/>
</svg>
